<svg width="120" height="150" viewBox="0 0 120 150" fill="none" xmlns="http://www.w3.org/2000/svg">
<rect width="120" height="150" rx="4" fill="#B8C5D0"/>
<path fill-rule="evenodd" clip-rule="evenodd" d="M8 16H112C114.209 16 116 17.7909 116 20V142C116 144.209 114.209 146 112 146H8C5.79086 146 4 144.209 4 142V20C4 17.7909 5.79086 16 8 16Z" fill="#F6F8F9"/>
<rect x="19" y="39" width="82" height="84" rx="1" fill="#DEE7EE"/>
<rect x="19" y="39" width="82" height="42" rx="1" fill="#DEE7EE"/>
<rect x="26" y="48" width="26" height="3" rx="1" fill="#89969F"/>
<rect x="84" y="48" width="10" height="3" rx="1" fill="#89969F"/>
<rect x="26" y="56" width="8" height="8" rx="1" fill="#B8C5D0"/>
<rect x="36" y="56" width="8" height="8" rx="1" fill="#B8C5D0"/>
<rect x="46" y="56" width="8" height="8" rx="1" fill="#B8C5D0"/>
<rect x="56" y="56" width="8" height="8" rx="1" fill="#B8C5D0"/>
<rect x="66" y="56" width="8" height="8" rx="1" fill="#B8C5D0"/>
<rect x="76" y="56" width="8" height="8" rx="1" fill="#B8C5D0"/>
<rect x="86" y="56" width="8" height="8" rx="1" fill="#B8C5D0"/>
<rect x="26" y="66" width="8" height="8" rx="1" fill="#B8C5D0"/>
<rect x="36" y="66" width="8" height="8" rx="1" fill="#B8C5D0"/>
<rect x="46" y="66" width="8" height="8" rx="1" fill="#B8C5D0"/>
<rect x="56" y="66" width="8" height="8" rx="1" fill="#B8C5D0"/>
<rect x="66" y="66" width="8" height="8" rx="1" fill="#B8C5D0"/>
<rect x="76" y="66" width="8" height="8" rx="1" fill="#B8C5D0"/>
<rect x="86" y="66" width="8" height="8" rx="1" fill="#B8C5D0"/>
<rect x="26" y="76" width="8" height="8" rx="1" fill="#B8C5D0"/>
<rect x="36" y="76" width="8" height="8" rx="1" fill="#B8C5D0"/>
<rect x="46" y="76" width="8" height="8" rx="1" fill="#B8C5D0"/>
<rect x="56" y="76" width="8" height="8" rx="1" fill="#89969F"/>
<rect x="66" y="76" width="8" height="8" rx="1" fill="#89969F"/>
<rect x="76" y="76" width="8" height="8" rx="1" fill="#89969F"/>
<rect x="86" y="76" width="8" height="8" rx="1" fill="#B8C5D0"/>
<rect x="26" y="86" width="8" height="8" rx="1" fill="#B8C5D0"/>
<rect x="36" y="86" width="8" height="8" rx="1" fill="#B8C5D0"/>
<rect x="46" y="86" width="8" height="8" rx="1" fill="#B8C5D0"/>
<rect x="56" y="86" width="8" height="8" rx="1" fill="#B8C5D0"/>
<rect x="66" y="86" width="8" height="8" rx="1" fill="#B8C5D0"/>
<rect x="76" y="86" width="8" height="8" rx="1" fill="#B8C5D0"/>
<rect x="86" y="86" width="8" height="8" rx="1" fill="#B8C5D0"/>
<rect x="26" y="96" width="8" height="8" rx="1" fill="#B8C5D0"/>
<rect x="36" y="96" width="8" height="8" rx="1" fill="#B8C5D0"/>
</svg>
