<svg width="120" height="150" viewBox="0 0 120 150" fill="none" xmlns="http://www.w3.org/2000/svg">
<rect width="120" height="150" rx="4" fill="#B8C5D0"/>
<path fill-rule="evenodd" clip-rule="evenodd" d="M8 16H112C114.209 16 116 17.7909 116 20V142C116 144.209 114.209 146 112 146H8C5.79086 146 4 144.209 4 142V20C4 17.7909 5.79086 16 8 16Z" fill="#F6F8F9"/>
<rect x="6" y="28" width="35" height="34" rx="4" fill="#B8C5D0"/>
<path fill-rule="evenodd" clip-rule="evenodd" d="M24 55.79C28.418 55.79 32 57.81 32 60.3C32 62.79 28.418 61.8 24 61.8C19.582 61.8 16 62.79 16 60.3C16 57.81 19.582 55.79 24 55.79ZM24 41C27.6559 41.049 30.5845 44.0438 30.5517 47.6999C30.519 51.3559 27.5372 54.2978 23.8811 54.2813C20.2249 54.2649 17.2698 51.2962 17.27 47.64C17.2816 45.8669 17.9973 44.1711 19.2595 42.9258C20.5217 41.6805 22.2269 40.9878 24 41Z" fill="#89969F"/>
<rect x="47" y="30" width="32" height="3" rx="1" fill="#89969F"/>
<rect x="47" y="39" width="42" height="3" rx="1" fill="#B8C5D0"/>
<rect x="47" y="45" width="62" height="3" rx="1" fill="#B8C5D0"/>
<rect x="47" y="51" width="63" height="3" rx="1" fill="#B8C5D0"/>
<rect x="47" y="57" width="46" height="3" rx="1" fill="#B8C5D0"/>
<rect x="6" y="64" width="35" height="34" rx="4" fill="#B8C5D0"/>
<path fill-rule="evenodd" clip-rule="evenodd" d="M24 91.79C28.418 91.79 32 93.81 32 96.3C32 98.79 28.418 97.8 24 97.8C19.582 97.8 16 98.79 16 96.3C16 93.81 19.582 91.79 24 91.79ZM24 77C27.6559 77.049 30.5845 80.0438 30.5517 83.6999C30.519 87.3559 27.5372 90.2978 23.8811 90.2813C20.2249 90.2649 17.2698 87.2962 17.27 83.64C17.2816 81.8669 17.9973 80.1711 19.2595 78.9258C20.5217 77.6805 22.2269 76.9878 24 77Z" fill="#89969F"/>
<rect x="47" y="66" width="42" height="3" rx="1" fill="#89969F"/>
<rect x="47" y="75" width="63" height="3" rx="1" fill="#B8C5D0"/>
<rect x="47" y="81" width="60" height="3" rx="1" fill="#B8C5D0"/>
<rect x="47" y="87" width="58" height="3" rx="1" fill="#B8C5D0"/>
<rect x="47" y="93" width="46" height="3" rx="1" fill="#B8C5D0"/>
<rect x="6" y="100" width="35" height="34" rx="4" fill="#B8C5D0"/>
<path fill-rule="evenodd" clip-rule="evenodd" d="M24 127.79C28.418 127.79 32 129.81 32 132.3C32 134.79 28.418 133.8 24 133.8C19.582 133.8 16 134.79 16 132.3C16 129.81 19.582 127.79 24 127.79ZM24 113C27.6559 113.049 30.5845 116.044 30.5517 119.7C30.519 123.356 27.5372 126.298 23.8811 126.281C20.2249 126.265 17.2698 123.296 17.27 119.64C17.2816 117.867 17.9973 116.171 19.2595 114.926C20.5217 113.681 22.2269 112.988 24 113Z" fill="#89969F"/>
<rect x="47" y="102" width="52" height="3" rx="1" fill="#89969F"/>
<rect x="47" y="111" width="32" height="3" rx="1" fill="#B8C5D0"/>
<rect x="47" y="117" width="55" height="3" rx="1" fill="#B8C5D0"/>
<rect x="47" y="123" width="59" height="3" rx="1" fill="#B8C5D0"/>
<rect x="47" y="129" width="41" height="3" rx="1" fill="#B8C5D0"/>
</svg>
