<svg width="120" height="150" viewBox="0 0 120 150" fill="none" xmlns="http://www.w3.org/2000/svg">
<rect width="120" height="150" rx="4" fill="#B8C5D0"/>
<path fill-rule="evenodd" clip-rule="evenodd" d="M8 16H112C114.209 16 116 17.7909 116 20V142C116 144.209 114.209 146 112 146H8C5.79086 146 4 144.209 4 142V20C4 17.7909 5.79086 16 8 16Z" fill="#F6F8F9"/>
<rect x="34" y="28" width="52" height="3" rx="1" fill="#89969F"/>
<rect x="6" y="39" width="29" height="3" rx="1" fill="#89969F"/>
<rect x="6" y="48" width="29" height="3" rx="1" fill="#B8C5D0"/>
<rect x="6" y="54" width="21" height="3" rx="1" fill="#B8C5D0"/>
<rect x="6" y="60" width="32" height="3" rx="1" fill="#B8C5D0"/>
<rect x="6" y="71" width="19" height="3" rx="1" fill="#89969F"/>
<rect x="6" y="80" width="29" height="3" rx="1" fill="#B8C5D0"/>
<rect x="6" y="86" width="21" height="3" rx="1" fill="#B8C5D0"/>
<rect x="6" y="92" width="12" height="3" rx="1" fill="#B8C5D0"/>
<rect x="6" y="103" width="24" height="3" rx="1" fill="#89969F"/>
<rect x="6" y="112" width="31" height="3" rx="1" fill="#B8C5D0"/>
<rect x="6" y="118" width="31" height="3" rx="1" fill="#B8C5D0"/>
<rect x="6" y="124" width="12" height="3" rx="1" fill="#B8C5D0"/>
<rect x="6" y="130" width="22" height="3" rx="1" fill="#B8C5D0"/>
<rect x="43" y="39" width="31" height="3" rx="1" fill="#89969F"/>
<rect x="43" y="48" width="25" height="3" rx="1" fill="#B8C5D0"/>
<rect x="43" y="54" width="31" height="3" rx="1" fill="#B8C5D0"/>
<rect x="43" y="60" width="12" height="3" rx="1" fill="#B8C5D0"/>
<rect x="43" y="71" width="31" height="3" rx="1" fill="#89969F"/>
<rect x="43" y="80" width="29" height="3" rx="1" fill="#B8C5D0"/>
<rect x="43" y="86" width="21" height="3" rx="1" fill="#B8C5D0"/>
<rect x="43" y="92" width="32" height="3" rx="1" fill="#B8C5D0"/>
<rect x="43" y="103" width="23" height="3" rx="1" fill="#89969F"/>
<rect x="43" y="112" width="27" height="3" rx="1" fill="#B8C5D0"/>
<rect x="43" y="118" width="31" height="3" rx="1" fill="#B8C5D0"/>
<rect x="43" y="124" width="32" height="3" rx="1" fill="#B8C5D0"/>
<rect x="43" y="130" width="27" height="3" rx="1" fill="#B8C5D0"/>
<rect x="43" y="136" width="22" height="3" rx="1" fill="#B8C5D0"/>
<rect x="79" y="39" width="35" height="3" rx="1" fill="#89969F"/>
<rect x="79" y="48" width="33" height="3" rx="1" fill="#B8C5D0"/>
<rect x="79" y="54" width="26" height="3" rx="1" fill="#B8C5D0"/>
<rect x="79" y="60" width="34" height="3" rx="1" fill="#B8C5D0"/>
<rect x="79" y="71" width="32" height="3" rx="1" fill="#89969F"/>
<rect x="79" y="80" width="33" height="3" rx="1" fill="#B8C5D0"/>
<rect x="79" y="86" width="31" height="3" rx="1" fill="#B8C5D0"/>
<rect x="79" y="92" width="27" height="3" rx="1" fill="#B8C5D0"/>
<rect x="79" y="103" width="19" height="3" rx="1" fill="#89969F"/>
<rect x="79" y="112" width="34" height="3" rx="1" fill="#B8C5D0"/>
<rect x="79" y="118" width="26" height="3" rx="1" fill="#B8C5D0"/>
<rect x="79" y="124" width="12" height="3" rx="1" fill="#B8C5D0"/>
</svg>
