<svg width="120" height="150" viewBox="0 0 120 150" fill="none" xmlns="http://www.w3.org/2000/svg">
<path d="M116 0H4C1.79086 0 0 1.79086 0 4V146C0 148.209 1.79086 150 4 150H116C118.209 150 120 148.209 120 146V4C120 1.79086 118.209 0 116 0Z" fill="#B8C5D0"/>
<path fill-rule="evenodd" clip-rule="evenodd" d="M8 16H112C114.209 16 116 17.7909 116 20V142C116 144.209 114.209 146 112 146H8C5.79086 146 4 144.209 4 142V20C4 17.7909 5.79086 16 8 16Z" fill="#F6F8F9"/>
<path d="M100 39H20C19.4477 39 19 39.4477 19 40V44C19 44.5523 19.4477 45 20 45H100C100.552 45 101 44.5523 101 44V40C101 39.4477 100.552 39 100 39Z" fill="#B8C5D0"/>
<path d="M100 48H20C19.4477 48 19 48.4477 19 49V53C19 53.5523 19.4477 54 20 54H100C100.552 54 101 53.5523 101 53V49C101 48.4477 100.552 48 100 48Z" fill="#B8C5D0"/>
<path d="M100 57H20C19.4477 57 19 57.4477 19 58V62C19 62.5523 19.4477 63 20 63H100C100.552 63 101 62.5523 101 62V58C101 57.4477 100.552 57 100 57Z" fill="#B8C5D0"/>
<path d="M100 66H20C19.4477 66 19 66.4477 19 67V71C19 71.5523 19.4477 72 20 72H100C100.552 72 101 71.5523 101 71V67C101 66.4477 100.552 66 100 66Z" fill="#B8C5D0"/>
<path d="M100 75H20C19.4477 75 19 75.4477 19 76V112C19 112.552 19.4477 113 20 113H100C100.552 113 101 112.552 101 112V76C101 75.4477 100.552 75 100 75Z" fill="#B8C5D0"/>
<path d="M100 116H80C79.4477 116 79 116.448 79 117V122C79 122.552 79.4477 123 80 123H100C100.552 123 101 122.552 101 122V117C101 116.448 100.552 116 100 116Z" fill="#89969F"/>
</svg>
