<svg width="120" height="163" viewBox="0 0 120 163" fill="none" xmlns="http://www.w3.org/2000/svg">
<rect width="120" height="150" rx="4" fill="#B8C5D0"/>
<path fill-rule="evenodd" clip-rule="evenodd" d="M8 16H112C114.209 16 116 17.7909 116 20V142C116 144.209 114.209 146 112 146H8C5.79086 146 4 144.209 4 142V20C4 17.7909 5.79086 16 8 16Z" fill="#F6F8F9"/>
<rect x="6" y="18" width="25" height="25" rx="4" fill="#B8C5D0"/>
<mask id="mask0" mask-type="alpha" maskUnits="userSpaceOnUse" x="6" y="18" width="25" height="25">
<rect x="6" y="18" width="25" height="25" rx="4" fill="white"/>
</mask>
<g mask="url(#mask0)">
<path fill-rule="evenodd" clip-rule="evenodd" d="M6 43C6 43 13.18 20.37 20.62 43C20.62 43 25.54 32.89 31 43H6ZM22.51 30C23.0971 29.9898 23.6319 30.3359 23.8632 30.8756C24.0945 31.4153 23.9762 32.0413 23.5639 32.4594C23.1516 32.8775 22.5274 33.0045 21.9845 32.7808C21.4416 32.5571 21.0881 32.0272 21.09 31.44C21.0868 31.0606 21.2347 30.6955 21.5012 30.4253C21.7676 30.1551 22.1306 30.0021 22.51 30Z" fill="#89969F"/>
</g>
<rect x="33" y="18" width="26" height="25" rx="4" fill="#B8C5D0"/>
<mask id="mask1" mask-type="alpha" maskUnits="userSpaceOnUse" x="33" y="18" width="26" height="25">
<rect x="33" y="18" width="26" height="25" rx="4" fill="white"/>
</mask>
<g mask="url(#mask1)">
<path fill-rule="evenodd" clip-rule="evenodd" d="M33 43C33 43 40.18 20.37 47.62 43C47.62 43 52.54 32.89 58 43H33ZM49.51 30C50.0971 29.9898 50.6319 30.3359 50.8632 30.8756C51.0945 31.4153 50.9762 32.0413 50.5639 32.4594C50.1516 32.8775 49.5274 33.0045 48.9845 32.7808C48.4416 32.5571 48.0881 32.0272 48.09 31.44C48.0868 31.0606 48.2347 30.6955 48.5012 30.4253C48.7676 30.1551 49.1306 30.0021 49.51 30Z" fill="#89969F"/>
</g>
<rect x="61" y="18" width="25" height="25" rx="4" fill="#B8C5D0"/>
<mask id="mask2" mask-type="alpha" maskUnits="userSpaceOnUse" x="61" y="18" width="25" height="25">
<rect x="61" y="18" width="25" height="25" rx="4" fill="white"/>
</mask>
<g mask="url(#mask2)">
<path fill-rule="evenodd" clip-rule="evenodd" d="M61 43C61 43 68.18 20.37 75.62 43C75.62 43 80.54 32.89 86 43H61ZM77.51 30C78.0971 29.9898 78.6319 30.3359 78.8632 30.8756C79.0945 31.4153 78.9762 32.0413 78.5639 32.4594C78.1516 32.8775 77.5274 33.0045 76.9845 32.7808C76.4416 32.5571 76.0881 32.0272 76.09 31.44C76.0868 31.0606 76.2347 30.6955 76.5012 30.4253C76.7676 30.1551 77.1306 30.0021 77.51 30Z" fill="#89969F"/>
</g>
<rect x="88" y="18" width="26" height="25" rx="4" fill="#B8C5D0"/>
<mask id="mask3" mask-type="alpha" maskUnits="userSpaceOnUse" x="88" y="18" width="26" height="25">
<rect x="88" y="18" width="26" height="25" rx="4" fill="white"/>
</mask>
<g mask="url(#mask3)">
<path fill-rule="evenodd" clip-rule="evenodd" d="M88 43C88 43 95.18 20.37 102.62 43C102.62 43 107.54 32.89 113 43H88ZM104.51 30C105.097 29.9898 105.632 30.3359 105.863 30.8756C106.094 31.4153 105.976 32.0413 105.564 32.4594C105.152 32.8775 104.527 33.0045 103.984 32.7808C103.442 32.5571 103.088 32.0272 103.09 31.44C103.087 31.0606 103.235 30.6955 103.501 30.4253C103.768 30.1551 104.131 30.0021 104.51 30Z" fill="#89969F"/>
</g>
<rect x="6" y="45" width="25" height="25" rx="4" fill="#B8C5D0"/>
<mask id="mask4" mask-type="alpha" maskUnits="userSpaceOnUse" x="6" y="45" width="25" height="25">
<rect x="6" y="45" width="25" height="25" rx="4" fill="white"/>
</mask>
<g mask="url(#mask4)">
<path fill-rule="evenodd" clip-rule="evenodd" d="M6 70C6 70 13.18 47.37 20.62 70C20.62 70 25.54 59.89 31 70H6ZM22.51 57C23.0971 56.9898 23.6319 57.3359 23.8632 57.8756C24.0945 58.4153 23.9762 59.0413 23.5639 59.4594C23.1516 59.8775 22.5274 60.0045 21.9845 59.7808C21.4416 59.5571 21.0881 59.0272 21.09 58.44C21.0868 58.0606 21.2347 57.6955 21.5012 57.4253C21.7676 57.1551 22.1306 57.0021 22.51 57Z" fill="#89969F"/>
</g>
<rect x="33" y="45" width="26" height="25" rx="4" fill="#B8C5D0"/>
<mask id="mask5" mask-type="alpha" maskUnits="userSpaceOnUse" x="33" y="45" width="26" height="25">
<rect x="33" y="45" width="26" height="25" rx="4" fill="white"/>
</mask>
<g mask="url(#mask5)">
<path fill-rule="evenodd" clip-rule="evenodd" d="M33 70C33 70 40.18 47.37 47.62 70C47.62 70 52.54 59.89 58 70H33ZM49.51 57C50.0971 56.9898 50.6319 57.3359 50.8632 57.8756C51.0945 58.4153 50.9762 59.0413 50.5639 59.4594C50.1516 59.8775 49.5274 60.0045 48.9845 59.7808C48.4416 59.5571 48.0881 59.0272 48.09 58.44C48.0868 58.0606 48.2347 57.6955 48.5012 57.4253C48.7676 57.1551 49.1306 57.0021 49.51 57Z" fill="#89969F"/>
</g>
<rect x="61" y="45" width="25" height="25" rx="4" fill="#B8C5D0"/>
<mask id="mask6" mask-type="alpha" maskUnits="userSpaceOnUse" x="61" y="45" width="25" height="25">
<rect x="61" y="45" width="25" height="25" rx="4" fill="white"/>
</mask>
<g mask="url(#mask6)">
<path fill-rule="evenodd" clip-rule="evenodd" d="M61 70C61 70 68.18 47.37 75.62 70C75.62 70 80.54 59.89 86 70H61ZM77.51 57C78.0971 56.9898 78.6319 57.3359 78.8632 57.8756C79.0945 58.4153 78.9762 59.0413 78.5639 59.4594C78.1516 59.8775 77.5274 60.0045 76.9845 59.7808C76.4416 59.5571 76.0881 59.0272 76.09 58.44C76.0868 58.0606 76.2347 57.6955 76.5012 57.4253C76.7676 57.1551 77.1306 57.0021 77.51 57Z" fill="#89969F"/>
</g>
<rect x="88" y="45" width="26" height="25" rx="4" fill="#B8C5D0"/>
<mask id="mask7" mask-type="alpha" maskUnits="userSpaceOnUse" x="88" y="45" width="26" height="25">
<rect x="88" y="45" width="26" height="25" rx="4" fill="white"/>
</mask>
<g mask="url(#mask7)">
<path fill-rule="evenodd" clip-rule="evenodd" d="M88 70C88 70 95.18 47.37 102.62 70C102.62 70 107.54 59.89 113 70H88ZM104.51 57C105.097 56.9898 105.632 57.3359 105.863 57.8756C106.094 58.4153 105.976 59.0413 105.564 59.4594C105.152 59.8775 104.527 60.0045 103.984 59.7808C103.442 59.5571 103.088 59.0272 103.09 58.44C103.087 58.0606 103.235 57.6955 103.501 57.4253C103.768 57.1551 104.131 57.0021 104.51 57Z" fill="#89969F"/>
</g>
<rect x="6" y="72" width="25" height="25" rx="4" fill="#B8C5D0"/>
<mask id="mask8" mask-type="alpha" maskUnits="userSpaceOnUse" x="6" y="72" width="25" height="25">
<rect x="6" y="72" width="25" height="25" rx="4" fill="white"/>
</mask>
<g mask="url(#mask8)">
<path fill-rule="evenodd" clip-rule="evenodd" d="M6 97C6 97 13.18 74.37 20.62 97C20.62 97 25.54 86.89 31 97H6ZM22.51 84C23.0971 83.9898 23.6319 84.3359 23.8632 84.8756C24.0945 85.4153 23.9762 86.0413 23.5639 86.4594C23.1516 86.8775 22.5274 87.0045 21.9845 86.7808C21.4416 86.5571 21.0881 86.0272 21.09 85.44C21.0868 85.0606 21.2347 84.6955 21.5012 84.4253C21.7676 84.1551 22.1306 84.0021 22.51 84Z" fill="#89969F"/>
</g>
<rect x="33" y="72" width="26" height="25" rx="4" fill="#B8C5D0"/>
<mask id="mask9" mask-type="alpha" maskUnits="userSpaceOnUse" x="33" y="72" width="26" height="25">
<rect x="33" y="72" width="26" height="25" rx="4" fill="white"/>
</mask>
<g mask="url(#mask9)">
<path fill-rule="evenodd" clip-rule="evenodd" d="M33 97C33 97 40.18 74.37 47.62 97C47.62 97 52.54 86.89 58 97H33ZM49.51 84C50.0971 83.9898 50.6319 84.3359 50.8632 84.8756C51.0945 85.4153 50.9762 86.0413 50.5639 86.4594C50.1516 86.8775 49.5274 87.0045 48.9845 86.7808C48.4416 86.5571 48.0881 86.0272 48.09 85.44C48.0868 85.0606 48.2347 84.6955 48.5012 84.4253C48.7676 84.1551 49.1306 84.0021 49.51 84Z" fill="#89969F"/>
</g>
<rect x="61" y="72" width="25" height="25" rx="4" fill="#B8C5D0"/>
<mask id="mask10" mask-type="alpha" maskUnits="userSpaceOnUse" x="61" y="72" width="25" height="25">
<rect x="61" y="72" width="25" height="25" rx="4" fill="white"/>
</mask>
<g mask="url(#mask10)">
<path fill-rule="evenodd" clip-rule="evenodd" d="M61 97C61 97 68.18 74.37 75.62 97C75.62 97 80.54 86.89 86 97H61ZM77.51 84C78.0971 83.9898 78.6319 84.3359 78.8632 84.8756C79.0945 85.4153 78.9762 86.0413 78.5639 86.4594C78.1516 86.8775 77.5274 87.0045 76.9845 86.7808C76.4416 86.5571 76.0881 86.0272 76.09 85.44C76.0868 85.0606 76.2347 84.6955 76.5012 84.4253C76.7676 84.1551 77.1306 84.0021 77.51 84Z" fill="#89969F"/>
</g>
<rect x="88" y="72" width="26" height="25" rx="4" fill="#B8C5D0"/>
<mask id="mask11" mask-type="alpha" maskUnits="userSpaceOnUse" x="88" y="72" width="26" height="25">
<rect x="88" y="72" width="26" height="25" rx="4" fill="white"/>
</mask>
<g mask="url(#mask11)">
<path fill-rule="evenodd" clip-rule="evenodd" d="M88 97C88 97 95.18 74.37 102.62 97C102.62 97 107.54 86.89 113 97H88ZM104.51 84C105.097 83.9898 105.632 84.3359 105.863 84.8756C106.094 85.4153 105.976 86.0413 105.564 86.4594C105.152 86.8775 104.527 87.0045 103.984 86.7808C103.442 86.5571 103.088 86.0272 103.09 85.44C103.087 85.0606 103.235 84.6955 103.501 84.4253C103.768 84.1551 104.131 84.0021 104.51 84Z" fill="#89969F"/>
</g>
<rect x="6" y="99" width="25" height="25" rx="4" fill="#B8C5D0"/>
<mask id="mask12" mask-type="alpha" maskUnits="userSpaceOnUse" x="6" y="99" width="25" height="25">
<rect x="6" y="99" width="25" height="25" rx="4" fill="white"/>
</mask>
<g mask="url(#mask12)">
<path fill-rule="evenodd" clip-rule="evenodd" d="M6 124C6 124 13.18 101.37 20.62 124C20.62 124 25.54 113.89 31 124H6ZM22.51 111C23.0971 110.99 23.6319 111.336 23.8632 111.876C24.0945 112.415 23.9762 113.041 23.5639 113.459C23.1516 113.877 22.5274 114.005 21.9845 113.781C21.4416 113.557 21.0881 113.027 21.09 112.44C21.0868 112.061 21.2347 111.695 21.5012 111.425C21.7676 111.155 22.1306 111.002 22.51 111Z" fill="#89969F"/>
</g>
<rect x="33" y="99" width="26" height="25" rx="4" fill="#B8C5D0"/>
<mask id="mask13" mask-type="alpha" maskUnits="userSpaceOnUse" x="33" y="99" width="26" height="25">
<rect x="33" y="99" width="26" height="25" rx="4" fill="white"/>
</mask>
<g mask="url(#mask13)">
<path fill-rule="evenodd" clip-rule="evenodd" d="M33 124C33 124 40.18 101.37 47.62 124C47.62 124 52.54 113.89 58 124H33ZM49.51 111C50.0971 110.99 50.6319 111.336 50.8632 111.876C51.0945 112.415 50.9762 113.041 50.5639 113.459C50.1516 113.877 49.5274 114.005 48.9845 113.781C48.4416 113.557 48.0881 113.027 48.09 112.44C48.0868 112.061 48.2347 111.695 48.5012 111.425C48.7676 111.155 49.1306 111.002 49.51 111Z" fill="#89969F"/>
</g>
<rect x="61" y="99" width="25" height="25" rx="4" fill="#B8C5D0"/>
<mask id="mask14" mask-type="alpha" maskUnits="userSpaceOnUse" x="61" y="99" width="25" height="25">
<rect x="61" y="99" width="25" height="25" rx="4" fill="white"/>
</mask>
<g mask="url(#mask14)">
<path fill-rule="evenodd" clip-rule="evenodd" d="M61 124C61 124 68.18 101.37 75.62 124C75.62 124 80.54 113.89 86 124H61ZM77.51 111C78.0971 110.99 78.6319 111.336 78.8632 111.876C79.0945 112.415 78.9762 113.041 78.5639 113.459C78.1516 113.877 77.5274 114.005 76.9845 113.781C76.4416 113.557 76.0881 113.027 76.09 112.44C76.0868 112.061 76.2347 111.695 76.5012 111.425C76.7676 111.155 77.1306 111.002 77.51 111Z" fill="#89969F"/>
</g>
<rect x="88" y="99" width="26" height="25" rx="4" fill="#B8C5D0"/>
<mask id="mask15" mask-type="alpha" maskUnits="userSpaceOnUse" x="88" y="99" width="26" height="25">
<rect x="88" y="99" width="26" height="25" rx="4" fill="white"/>
</mask>
<g mask="url(#mask15)">
<path fill-rule="evenodd" clip-rule="evenodd" d="M88 124C88 124 95.18 101.37 102.62 124C102.62 124 107.54 113.89 113 124H88ZM104.51 111C105.097 110.99 105.632 111.336 105.863 111.876C106.094 112.415 105.976 113.041 105.564 113.459C105.152 113.877 104.527 114.005 103.984 113.781C103.442 113.557 103.088 113.027 103.09 112.44C103.087 112.061 103.235 111.695 103.501 111.425C103.768 111.155 104.131 111.002 104.51 111Z" fill="#89969F"/>
</g>
<rect x="6" y="126" width="25" height="18" rx="4" fill="#B8C5D0"/>
<mask id="mask16" mask-type="alpha" maskUnits="userSpaceOnUse" x="6" y="126" width="25" height="18">
<rect x="6" y="126" width="25" height="18" rx="4" fill="white"/>
</mask>
<g mask="url(#mask16)">
<path fill-rule="evenodd" clip-rule="evenodd" d="M6 151C6 151 13.18 128.37 20.62 151C20.62 151 25.54 140.89 31 151H6ZM22.51 138C23.0971 137.99 23.6319 138.336 23.8632 138.876C24.0945 139.415 23.9762 140.041 23.5639 140.459C23.1516 140.877 22.5274 141.005 21.9845 140.781C21.4416 140.557 21.0881 140.027 21.09 139.44C21.0868 139.061 21.2347 138.695 21.5012 138.425C21.7676 138.155 22.1306 138.002 22.51 138Z" fill="#89969F"/>
</g>
<rect x="33" y="126" width="26" height="18" rx="4" fill="#B8C5D0"/>
<mask id="mask17" mask-type="alpha" maskUnits="userSpaceOnUse" x="33" y="126" width="26" height="18">
<rect x="33" y="126" width="26" height="18" rx="4" fill="white"/>
</mask>
<g mask="url(#mask17)">
<path fill-rule="evenodd" clip-rule="evenodd" d="M33 151C33 151 40.18 128.37 47.62 151C47.62 151 52.54 140.89 58 151H33ZM49.51 138C50.0971 137.99 50.6319 138.336 50.8632 138.876C51.0945 139.415 50.9762 140.041 50.5639 140.459C50.1516 140.877 49.5274 141.005 48.9845 140.781C48.4416 140.557 48.0881 140.027 48.09 139.44C48.0868 139.061 48.2347 138.695 48.5012 138.425C48.7676 138.155 49.1306 138.002 49.51 138Z" fill="#89969F"/>
</g>
<rect x="61" y="126" width="25" height="18" rx="4" fill="#B8C5D0"/>
<mask id="mask18" mask-type="alpha" maskUnits="userSpaceOnUse" x="61" y="126" width="25" height="18">
<rect x="61" y="126" width="25" height="18" rx="4" fill="white"/>
</mask>
<g mask="url(#mask18)">
<path fill-rule="evenodd" clip-rule="evenodd" d="M61 151C61 151 68.18 128.37 75.62 151C75.62 151 80.54 140.89 86 151H61ZM77.51 138C78.0971 137.99 78.6319 138.336 78.8632 138.876C79.0945 139.415 78.9762 140.041 78.5639 140.459C78.1516 140.877 77.5274 141.005 76.9845 140.781C76.4416 140.557 76.0881 140.027 76.09 139.44C76.0868 139.061 76.2347 138.695 76.5012 138.425C76.7676 138.155 77.1306 138.002 77.51 138Z" fill="#89969F"/>
</g>
<rect x="88" y="126" width="26" height="18" rx="4" fill="#B8C5D0"/>
<mask id="mask19" mask-type="alpha" maskUnits="userSpaceOnUse" x="88" y="126" width="26" height="18">
<rect x="88" y="126" width="26" height="18" rx="4" fill="white"/>
</mask>
<g mask="url(#mask19)">
<path fill-rule="evenodd" clip-rule="evenodd" d="M88 151C88 151 95.18 128.37 102.62 151C102.62 151 107.54 140.89 113 151H88ZM104.51 138C105.097 137.99 105.632 138.336 105.863 138.876C106.094 139.415 105.976 140.041 105.564 140.459C105.152 140.877 104.527 141.005 103.984 140.781C103.442 140.557 103.088 140.027 103.09 139.44C103.087 139.061 103.235 138.695 103.501 138.425C103.768 138.155 104.131 138.002 104.51 138Z" fill="#89969F"/>
</g>
</svg>
