<svg width="120" height="150" viewBox="0 0 120 150" fill="none" xmlns="http://www.w3.org/2000/svg">
<rect width="120" height="150" rx="4" fill="#B8C5D0"/>
<path fill-rule="evenodd" clip-rule="evenodd" d="M8 16H112C114.209 16 116 17.7909 116 20V142C116 144.209 114.209 146 112 146H8C5.79086 146 4 144.209 4 142V20C4 17.7909 5.79086 16 8 16Z" fill="#F6F8F9"/>
<rect x="6" y="28" width="52" height="3" rx="1" fill="#89969F"/>
<rect x="6" y="37" width="35" height="34" rx="4" fill="#B8C5D0"/>
<mask id="mask0" mask-type="alpha" maskUnits="userSpaceOnUse" x="6" y="37" width="35" height="34">
<rect x="6" y="37" width="35" height="34" rx="4" fill="white"/>
</mask>
<g mask="url(#mask0)">
<path fill-rule="evenodd" clip-rule="evenodd" d="M6 71C6 71 16.05 41.41 26.47 71C26.47 71 33.35 57.78 41 71H6ZM29.11 54C30.1424 54.0481 30.9451 54.9156 30.9131 55.9486C30.881 56.9816 30.026 57.7977 28.9927 57.7817C27.9593 57.7657 27.13 56.9235 27.13 55.89C27.1418 55.3768 27.3571 54.8892 27.7284 54.5348C28.0998 54.1803 28.5968 53.9879 29.11 54V54Z" fill="#89969F"/>
</g>
<rect x="47" y="38" width="33" height="3" rx="1" fill="#B8C5D0"/>
<rect x="47" y="44" width="31" height="3" rx="1" fill="#B8C5D0"/>
<rect x="47" y="50" width="33" height="3" rx="1" fill="#B8C5D0"/>
<rect x="47" y="56" width="31" height="3" rx="1" fill="#B8C5D0"/>
<rect x="47" y="62" width="33" height="3" rx="1" fill="#B8C5D0"/>
<rect x="47" y="68" width="29" height="3" rx="1" fill="#B8C5D0"/>
<rect x="6" y="74" width="74" height="3" rx="1" fill="#B8C5D0"/>
<rect x="6" y="80" width="74" height="3" rx="1" fill="#B8C5D0"/>
<rect x="6" y="86" width="74" height="3" rx="1" fill="#B8C5D0"/>
<rect x="6" y="92" width="74" height="3" rx="1" fill="#B8C5D0"/>
<rect x="6" y="98" width="74" height="3" rx="1" fill="#B8C5D0"/>
<rect x="6" y="104" width="74" height="3" rx="1" fill="#B8C5D0"/>
<rect x="6" y="110" width="74" height="3" rx="1" fill="#B8C5D0"/>
<rect x="6" y="116" width="74" height="3" rx="1" fill="#B8C5D0"/>
<rect x="6" y="122" width="74" height="3" rx="1" fill="#B8C5D0"/>
<rect x="6" y="128" width="74" height="3" rx="1" fill="#B8C5D0"/>
<rect x="86" y="28" width="28" height="106" rx="4" fill="#B8C5D0"/>
</svg>
