<svg width="120" height="150" viewBox="0 0 120 150" fill="none" xmlns="http://www.w3.org/2000/svg">
<rect width="120" height="150" rx="4" fill="#B8C5D0"/>
<path fill-rule="evenodd" clip-rule="evenodd" d="M8 16H112C114.209 16 116 17.7909 116 20V142C116 144.209 114.209 146 112 146H8C5.79086 146 4 144.209 4 142V20C4 17.7909 5.79086 16 8 16Z" fill="#F6F8F9"/>
<rect x="6" y="28" width="53" height="53" rx="4" fill="#B8C5D0"/>
<mask id="mask0" mask-type="alpha" maskUnits="userSpaceOnUse" x="6" y="28" width="53" height="53">
<rect x="6" y="28" width="53" height="53" rx="4" fill="white"/>
</mask>
<g mask="url(#mask0)">
<path fill-rule="evenodd" clip-rule="evenodd" d="M6 81C6 81 21.21 34 37 81C37 81 47.41 60 59 81H6ZM41 54C42.6569 54 44 55.3431 44 57C44 58.6569 42.6569 60 41 60C39.3431 60 38 58.6569 38 57C38 55.3431 39.3431 54 41 54V54Z" fill="#89969F"/>
</g>
<rect x="65" y="28" width="31" height="3" rx="1" fill="#89969F"/>
<rect x="65" y="38" width="29" height="3" rx="1" fill="#B8C5D0"/>
<rect x="65" y="44" width="44" height="3" rx="1" fill="#B8C5D0"/>
<rect x="65" y="50" width="48" height="3" rx="1" fill="#B8C5D0"/>
<rect x="65" y="56" width="21" height="3" rx="1" fill="#B8C5D0"/>
<rect x="65" y="66" width="22" height="7" rx="1" fill="#89969F"/>
<rect x="6" y="83" width="108" height="51" rx="4" fill="#B8C5D0"/>
<path fill-rule="evenodd" clip-rule="evenodd" d="M28.57 101L31.06 105.4L36.13 106.35L32.6 110.01L33.24 115L28.57 112.87L23.89 115L24.53 110.01L21 106.35L26.07 105.4L28.57 101" fill="#89969F"/>
<path fill-rule="evenodd" clip-rule="evenodd" d="M44.87 101L47.36 105.4L52.43 106.35L48.9 110.01L49.54 115L44.87 112.87L40.19 115L40.83 110.01L37.3 106.35L42.37 105.4L44.87 101" fill="#89969F"/>
<path fill-rule="evenodd" clip-rule="evenodd" d="M61.16 101L63.66 105.4L68.73 106.35L65.2 110.01L65.84 115L61.16 112.87L56.49 115L57.13 110.01L53.6 106.35L58.67 105.4L61.16 101" fill="#89969F"/>
<path fill-rule="evenodd" clip-rule="evenodd" d="M76.3 101L78.79 105.4L83.86 106.35L80.33 110.01L80.97 115L76.3 112.87L71.62 115L72.26 110.01L68.73 106.35L73.8 105.4L76.3 101" fill="#89969F"/>
<path fill-rule="evenodd" clip-rule="evenodd" d="M91.43 101L93.93 105.4L99 106.35L95.47 110.01L96.11 115L91.43 112.87L86.76 115L87.4 110.01L83.87 106.35L88.94 105.4L91.43 101" fill="#DEE7EE"/>
</svg>
