<svg width="120" height="150" viewBox="0 0 120 150" fill="none" xmlns="http://www.w3.org/2000/svg">
<rect width="120" height="150" rx="4" fill="#B8C5D0"/>
<path fill-rule="evenodd" clip-rule="evenodd" d="M8 16H112C114.209 16 116 17.7909 116 20V142C116 144.209 114.209 146 112 146H8C5.79086 146 4 144.209 4 142V20C4 17.7909 5.79086 16 8 16Z" fill="#F6F8F9"/>
<rect x="6" y="18" width="108" height="40" rx="4" fill="#B8C5D0"/>
<path d="M30.5 51C37.4036 51 43 45.4036 43 38.5C43 31.5964 37.4036 26 30.5 26C23.5964 26 18 31.5964 18 38.5C18 45.4036 23.5964 51 30.5 51Z" fill="#89969F"/>
<mask id="mask0" mask-type="alpha" maskUnits="userSpaceOnUse" x="18" y="26" width="25" height="25">
<path d="M30.5 51C37.4036 51 43 45.4036 43 38.5C43 31.5964 37.4036 26 30.5 26C23.5964 26 18 31.5964 18 38.5C18 45.4036 23.5964 51 30.5 51Z" fill="white"/>
</mask>
<g mask="url(#mask0)">
<path fill-rule="evenodd" clip-rule="evenodd" d="M30.5 46.56C33.537 46.56 36 48.01 36 49.79C36 51.57 33.537 51.86 30.5 51.86C27.463 51.86 25 51.57 25 49.79C25 48.01 27.462 46.56 30.5 46.56ZM30.5 36C32.4308 35.9512 34.1987 37.077 34.971 38.8473C35.7433 40.6176 35.366 42.6793 34.0169 44.0614C32.6677 45.4435 30.6157 45.8704 28.8273 45.141C27.039 44.4116 25.8708 42.6714 25.873 40.74C25.8578 39.4978 26.3368 38.3004 27.2046 37.4115C28.0723 36.5225 29.2578 36.0148 30.5 36Z" fill="#B8C5D0"/>
</g>
<rect x="49" y="31" width="30" height="3" rx="1" fill="#89969F"/>
<rect x="49" y="37" width="35" height="3" rx="1" fill="#DEE7EE"/>
<rect x="49" y="43" width="58" height="3" rx="1" fill="#DEE7EE"/>
<rect x="6" y="60" width="108" height="41" rx="4" fill="#B8C5D0"/>
<path d="M30.5 93C37.4036 93 43 87.4036 43 80.5C43 73.5964 37.4036 68 30.5 68C23.5964 68 18 73.5964 18 80.5C18 87.4036 23.5964 93 30.5 93Z" fill="#89969F"/>
<mask id="mask1" mask-type="alpha" maskUnits="userSpaceOnUse" x="18" y="68" width="25" height="25">
<path d="M30.5 93C37.4036 93 43 87.4036 43 80.5C43 73.5964 37.4036 68 30.5 68C23.5964 68 18 73.5964 18 80.5C18 87.4036 23.5964 93 30.5 93Z" fill="white"/>
</mask>
<g mask="url(#mask1)">
<path fill-rule="evenodd" clip-rule="evenodd" d="M30.5 88.56C33.537 88.56 36 90.01 36 91.79C36 93.57 33.537 93.86 30.5 93.86C27.463 93.86 25 93.57 25 91.79C25 90.01 27.462 88.56 30.5 88.56ZM30.5 78C32.4308 77.9512 34.1987 79.077 34.971 80.8473C35.7433 82.6176 35.366 84.6793 34.0169 86.0614C32.6677 87.4435 30.6157 87.8704 28.8273 87.141C27.039 86.4116 25.8708 84.6714 25.873 82.74C25.8578 81.4978 26.3368 80.3004 27.2046 79.4115C28.0723 78.5225 29.2578 78.0148 30.5 78Z" fill="#B8C5D0"/>
</g>
<rect x="49" y="73" width="40" height="3" rx="1" fill="#89969F"/>
<rect x="49" y="79" width="49" height="3" rx="1" fill="#DEE7EE"/>
<rect x="49" y="85" width="19" height="3" rx="1" fill="#DEE7EE"/>
<rect x="6" y="103" width="108" height="41" rx="4" fill="#B8C5D0"/>
<path d="M30.5 137C37.4036 137 43 131.404 43 124.5C43 117.596 37.4036 112 30.5 112C23.5964 112 18 117.596 18 124.5C18 131.404 23.5964 137 30.5 137Z" fill="#89969F"/>
<mask id="mask2" mask-type="alpha" maskUnits="userSpaceOnUse" x="18" y="112" width="25" height="25">
<path d="M30.5 137C37.4036 137 43 131.404 43 124.5C43 117.596 37.4036 112 30.5 112C23.5964 112 18 117.596 18 124.5C18 131.404 23.5964 137 30.5 137Z" fill="white"/>
</mask>
<g mask="url(#mask2)">
<path fill-rule="evenodd" clip-rule="evenodd" d="M30.5 132.56C33.537 132.56 36 134.01 36 135.79C36 137.57 33.537 137.86 30.5 137.86C27.463 137.86 25 137.57 25 135.79C25 134.01 27.462 132.56 30.5 132.56ZM34.971 124.847C35.7433 126.618 35.366 128.679 34.0169 130.061C32.6677 131.443 30.6157 131.87 28.8273 131.141C27.039 130.412 25.8708 128.671 25.873 126.74C25.8578 125.498 26.3368 124.3 27.2046 123.411C28.0723 122.523 29.2578 122.015 30.5 122C32.4308 121.951 34.1987 123.077 34.971 124.847Z" fill="#B8C5D0"/>
</g>
<rect x="49" y="117" width="34" height="3" rx="1" fill="#89969F"/>
<rect x="49" y="123" width="40" height="3" rx="1" fill="#DEE7EE"/>
<rect x="49" y="129" width="29" height="3" rx="1" fill="#DEE7EE"/>
</svg>
