<svg width="120" height="150" viewBox="0 0 120 150" fill="none" xmlns="http://www.w3.org/2000/svg"><rect width="120" height="150" rx="4" fill="#3AC550"/><path fill-rule="evenodd" clip-rule="evenodd" d="M8 16H112C114.209 16 116 17.7909 116 20V142C116 144.209 114.209 146 112 146H8C5.79086 146 4 144.209 4 142V20C4 17.7909 5.79086 16 8 16Z" fill="#F6F8F9"/><rect x="6" y="28" width="35" height="34" rx="4" fill="#B8C5D0"/><path fill-rule="evenodd" clip-rule="evenodd" d="M24 55.79C28.418 55.79 32 57.81 32 60.3C32 62.79 28.418 61.8 24 61.8C19.582 61.8 16 62.79 16 60.3C16 57.81 19.582 55.79 24 55.79ZM24 41C27.6559 41.049 30.5845 44.0439 30.5517 47.6999C30.519 51.356 27.5372 54.2979 23.8811 54.2814C20.2249 54.2649 17.2698 51.2962 17.27 47.64C17.2816 45.867 17.9973 44.1712 19.2595 42.9259C20.5217 41.6806 22.2269 40.9878 24 41Z" fill="#89969F"/><rect x="47" y="30" width="42" height="3" rx="1" fill="#89969F"/><rect x="47" y="39" width="65" height="3" rx="1" fill="#B8C5D0"/><rect x="47" y="45" width="63" height="3" rx="1" fill="#B8C5D0"/><rect x="47" y="51" width="64" height="3" rx="1" fill="#B8C5D0"/><rect x="47" y="57" width="57" height="3" rx="1" fill="#B8C5D0"/><rect x="6" y="65" width="108" height="3" rx="1" fill="#B8C5D0"/><rect x="6" y="71" width="108" height="3" rx="1" fill="#B8C5D0"/><rect x="6" y="77" width="108" height="3" rx="1" fill="#B8C5D0"/><rect x="6" y="83" width="108" height="3" rx="1" fill="#B8C5D0"/><rect x="6" y="89" width="108" height="3" rx="1" fill="#B8C5D0"/><rect x="6" y="95" width="108" height="3" rx="1" fill="#B8C5D0"/><rect x="6" y="101" width="108" height="3" rx="1" fill="#B8C5D0"/><rect x="6" y="107" width="108" height="3" rx="1" fill="#B8C5D0"/><rect x="6" y="113" width="108" height="3" rx="1" fill="#B8C5D0"/><rect x="6" y="119" width="108" height="3" rx="1" fill="#B8C5D0"/><rect x="6" y="125" width="108" height="3" rx="1" fill="#B8C5D0"/><rect x="6" y="131" width="108" height="3" rx="1" fill="#B8C5D0"/></svg>