<svg width="120" height="150" viewBox="0 0 120 150" fill="none" xmlns="http://www.w3.org/2000/svg"><rect width="120" height="150" rx="4" fill="#40454A"/><path fill-rule="evenodd" clip-rule="evenodd" d="M8 16H112C114.209 16 116 17.7909 116 20V142C116 144.209 114.209 146 112 146H8C5.79086 146 4 144.209 4 142V20C4 17.7909 5.79086 16 8 16Z" fill="#F6F8F9"/><rect x="19" y="39" width="82" height="6" rx="1" fill="#B8C5D0"/><rect x="19" y="48" width="82" height="6" rx="1" fill="#B8C5D0"/><rect x="19" y="57" width="82" height="6" rx="1" fill="#B8C5D0"/><rect x="19" y="66" width="82" height="6" rx="1" fill="#B8C5D0"/><rect x="19" y="75" width="82" height="38" rx="1" fill="#B8C5D0"/><rect x="79" y="116" width="22" height="7" rx="1" fill="#89969F"/></svg>