<svg width="120" height="150" viewBox="0 0 120 150" fill="none" xmlns="http://www.w3.org/2000/svg"><rect width="120" height="150" rx="4" fill="#B8D0B9"/><path fill-rule="evenodd" clip-rule="evenodd" d="M8 16H112C114.209 16 116 17.7909 116 20V142C116 144.209 114.209 146 112 146H8C5.79086 146 4 144.209 4 142V20C4 17.7909 5.79086 16 8 16Z" fill="#F6F8F9"/><rect x="6" y="18" width="35" height="126" rx="4" fill="#DEE7EE"/><path d="M24 48C30.6274 48 36 42.6274 36 36C36 29.3726 30.6274 24 24 24C17.3726 24 12 29.3726 12 36C12 42.6274 17.3726 48 24 48Z" fill="#B8C5D0"/><mask id="mask0" mask-type="alpha" maskUnits="userSpaceOnUse" x="12" y="24" width="24" height="24"><path d="M24 48C30.6274 48 36 42.6274 36 36C36 29.3726 30.6274 24 24 24C17.3726 24 12 29.3726 12 36C12 42.6274 17.3726 48 24 48Z" fill="white"/></mask><g mask="url(#mask0)"><path fill-rule="evenodd" clip-rule="evenodd" d="M24.5 43.56C27.54 43.56 30 45.01 30 46.79C30 48.57 27.54 48.86 24.5 48.86C21.46 48.86 19 48.57 19 46.79C19 45.01 21.46 43.56 24.5 43.56ZM24.5 33C26.43 32.9528 28.1962 34.0794 28.9672 35.8493C29.7381 37.6193 29.3601 39.6798 28.0111 41.0608C26.6621 42.4419 24.611 42.8682 22.8234 42.139C21.0359 41.4098 19.8681 39.6705 19.87 37.74C19.8548 36.4972 20.3342 35.2994 21.2026 34.4104C22.0711 33.5213 23.2573 33.0139 24.5 33Z" fill="#89969F"/></g><rect x="13" y="54" width="21" height="3" rx="1" fill="#B8C5D0"/><rect x="13" y="60" width="21" height="3" rx="1" fill="#B8C5D0"/><rect x="13" y="66" width="21" height="3" rx="1" fill="#B8C5D0"/><rect x="47" y="36" width="52" height="3" rx="1" fill="#89969F"/><rect x="47" y="47" width="61" height="3" rx="1" fill="#B8C5D0"/><rect x="47" y="53" width="62" height="3" rx="1" fill="#B8C5D0"/><rect x="47" y="59" width="59" height="3" rx="1" fill="#B8C5D0"/><rect x="47" y="65" width="60" height="3" rx="1" fill="#B8C5D0"/><rect x="47" y="71" width="61" height="3" rx="1" fill="#B8C5D0"/><rect x="47" y="77" width="59" height="3" rx="1" fill="#B8C5D0"/><rect x="47" y="83" width="62" height="3" rx="1" fill="#B8C5D0"/><rect x="47" y="89" width="49" height="3" rx="1" fill="#B8C5D0"/><rect x="47" y="95" width="59" height="3" rx="1" fill="#B8C5D0"/><rect x="47" y="101" width="60" height="3" rx="1" fill="#B8C5D0"/><rect x="47" y="107" width="63" height="3" rx="1" fill="#B8C5D0"/><rect x="47" y="113" width="56" height="3" rx="1" fill="#B8C5D0"/><rect x="47" y="119" width="49" height="3" rx="1" fill="#B8C5D0"/></svg>