<svg width="120" height="150" viewBox="0 0 120 150" fill="none" xmlns="http://www.w3.org/2000/svg"><rect width="120" height="150" rx="4" fill="#B51A1A"/><path fill-rule="evenodd" clip-rule="evenodd" d="M8 16H112C114.209 16 116 17.7909 116 20V142C116 144.209 114.209 146 112 146H8C5.79086 146 4 144.209 4 142V20C4 17.7909 5.79086 16 8 16Z" fill="#F6F8F9"/><rect x="6" y="18" width="108" height="62" rx="4" fill="#89969F"/><path d="M60.5 62C67.4036 62 73 56.4036 73 49.5C73 42.5964 67.4036 37 60.5 37C53.5964 37 48 42.5964 48 49.5C48 56.4036 53.5964 62 60.5 62Z" fill="#B8C5D0"/><mask id="mask0" mask-type="alpha" maskUnits="userSpaceOnUse" x="48" y="37" width="25" height="25"><path d="M60.5 62C67.4036 62 73 56.4036 73 49.5C73 42.5964 67.4036 37 60.5 37C53.5964 37 48 42.5964 48 49.5C48 56.4036 53.5964 62 60.5 62Z" fill="white"/></mask><g mask="url(#mask0)"><path fill-rule="evenodd" clip-rule="evenodd" d="M60.5 57.5601C63.537 57.5601 66 59.0101 66 60.7901C66 62.5701 63.537 62.8601 60.5 62.8601C57.463 62.8601 55 62.5701 55 60.7901C55 59.0101 57.462 57.5601 60.5 57.5601ZM60.5 47.0001C62.4308 46.9512 64.1987 48.0771 64.971 49.8474C65.7433 51.6177 65.366 53.6794 64.0169 55.0614C62.6677 56.4435 60.6157 56.8704 58.8273 56.141C57.039 55.4117 55.8708 53.6715 55.873 51.7401C55.8578 50.4979 56.3368 49.3005 57.2046 48.4115C58.0723 47.5226 59.2578 47.0148 60.5 47.0001Z" fill="#89969F"/></g><path fill-rule="evenodd" clip-rule="evenodd" d="M100.489 56C99.8831 55.9986 99.3375 55.6329 99.106 55.0729C98.8746 54.5129 99.0028 53.8687 99.431 53.44L103.378 49.49L99.431 45.54C99.0191 45.169 98.8453 44.6011 98.9792 44.0631C99.1131 43.5251 99.5327 43.1049 100.07 42.9702C100.608 42.8356 101.176 43.0086 101.548 43.42L106.554 48.43C107.139 49.0156 107.139 49.9643 106.554 50.55L101.548 55.56C101.267 55.8411 100.886 55.9994 100.489 56V56Z" fill="#B8C5D0"/><path fill-rule="evenodd" clip-rule="evenodd" d="M19.511 56C20.1169 55.9986 20.6625 55.6329 20.894 55.0729C21.1254 54.5129 20.9972 53.8687 20.569 53.44L16.622 49.49L20.569 45.54C20.9809 45.169 21.1547 44.6011 21.0208 44.0631C20.8869 43.5251 20.4673 43.1049 19.9295 42.9702C19.3917 42.8356 18.8236 43.0086 18.452 43.42L13.446 48.43C12.8611 49.0156 12.8611 49.9643 13.446 50.55L18.452 55.56C18.7332 55.8406 19.1138 55.9987 19.511 56V56Z" fill="#B8C5D0"/><rect x="70" y="85" width="4" height="4" rx="1" fill="#B8C5D0"/><rect x="64" y="85" width="4" height="4" rx="1" fill="#B8C5D0"/><rect x="58" y="85" width="4" height="4" rx="1" fill="#B8C5D0"/><rect x="52" y="85" width="4" height="4" rx="1" fill="#B8C5D0"/><rect x="46" y="85" width="4" height="4" rx="1" fill="#89969F"/><rect x="34" y="98" width="52" height="3" rx="1" fill="#89969F"/><rect x="26" y="108" width="68" height="3" rx="1" fill="#B8C5D0"/><rect x="22" y="114" width="77" height="3" rx="1" fill="#B8C5D0"/><rect x="34" y="120" width="53" height="3" rx="1" fill="#B8C5D0"/></svg>