<svg width="120" height="150" viewBox="0 0 120 150" fill="none" xmlns="http://www.w3.org/2000/svg"><rect width="120" height="150" rx="4" fill="#E717C5"/><path fill-rule="evenodd" clip-rule="evenodd" d="M8 16H112C114.209 16 116 17.7909 116 20V142C116 144.209 114.209 146 112 146H8C5.79086 146 4 144.209 4 142V20C4 17.7909 5.79086 16 8 16Z" fill="#F6F8F9"/><rect x="6" y="28" width="35" height="34" rx="4" fill="#B8C5D0"/><path fill-rule="evenodd" clip-rule="evenodd" d="M24 36C27.8847 36.0209 31.0177 39.1853 31 43.07C31 46.97 25.312 55 24 55C22.688 55 17 46.97 17 43.07C16.9823 39.1853 20.1154 36.0209 24 36ZM24 39.98C25.2523 39.9687 26.3876 40.7143 26.8747 41.868C27.3618 43.0217 27.1044 44.3553 26.2229 45.2449C25.3414 46.1344 24.0102 46.404 22.8521 45.9274C21.694 45.4508 20.9381 44.3223 20.938 43.07C20.9338 42.254 21.2541 41.4699 21.8285 40.8902C22.4028 40.3106 23.184 39.9832 24 39.98V39.98Z" fill="#89969F"/><rect x="47" y="30" width="32" height="3" rx="1" fill="#89969F"/><rect x="47" y="39" width="42" height="3" rx="1" fill="#B8C5D0"/><rect x="47" y="45" width="62" height="3" rx="1" fill="#B8C5D0"/><rect x="47" y="51" width="63" height="3" rx="1" fill="#B8C5D0"/><rect x="47" y="57" width="46" height="3" rx="1" fill="#B8C5D0"/><rect x="6" y="64" width="35" height="34" rx="4" fill="#B8C5D0"/><path fill-rule="evenodd" clip-rule="evenodd" d="M24 72C27.8847 72.0209 31.0177 75.1853 31 79.07C31 82.97 25.312 91 24 91C22.688 91 17 82.97 17 79.07C16.9823 75.1853 20.1154 72.0209 24 72V72ZM24 75.98C25.2523 75.9687 26.3876 76.7143 26.8747 77.868C27.3618 79.0217 27.1044 80.3553 26.2229 81.2449C25.3414 82.1344 24.0102 82.404 22.8521 81.9274C21.694 81.4508 20.9381 80.3223 20.938 79.07C20.9338 78.254 21.2541 77.4699 21.8285 76.8902C22.4028 76.3106 23.184 75.9832 24 75.98Z" fill="#89969F"/><rect x="47" y="66" width="42" height="3" rx="1" fill="#89969F"/><rect x="47" y="75" width="63" height="3" rx="1" fill="#B8C5D0"/><rect x="47" y="81" width="60" height="3" rx="1" fill="#B8C5D0"/><rect x="47" y="87" width="58" height="3" rx="1" fill="#B8C5D0"/><rect x="47" y="93" width="46" height="3" rx="1" fill="#B8C5D0"/><rect x="6" y="100" width="35" height="34" rx="4" fill="#B8C5D0"/><path fill-rule="evenodd" clip-rule="evenodd" d="M24 108C27.8847 108.021 31.0177 111.185 31 115.07C31 118.97 25.312 127 24 127C22.688 127 17 118.97 17 115.07C16.9823 111.185 20.1154 108.021 24 108V108ZM24 111.98C25.2523 111.969 26.3876 112.714 26.8747 113.868C27.3618 115.022 27.1044 116.355 26.2229 117.245C25.3414 118.134 24.0102 118.404 22.8521 117.927C21.694 117.451 20.9381 116.322 20.938 115.07C20.9338 114.254 21.2541 113.47 21.8285 112.89C22.4028 112.311 23.184 111.983 24 111.98V111.98Z" fill="#89969F"/><rect x="47" y="102" width="52" height="3" rx="1" fill="#89969F"/><rect x="47" y="111" width="32" height="3" rx="1" fill="#B8C5D0"/><rect x="47" y="117" width="55" height="3" rx="1" fill="#B8C5D0"/><rect x="47" y="123" width="59" height="3" rx="1" fill="#B8C5D0"/><rect x="47" y="129" width="41" height="3" rx="1" fill="#B8C5D0"/></svg>