<svg width="120" height="150" viewBox="0 0 120 150" fill="none" xmlns="http://www.w3.org/2000/svg"><rect width="120" height="150" rx="4" fill="#D0B8C9"/><path fill-rule="evenodd" clip-rule="evenodd" d="M8 16H112C114.209 16 116 17.7909 116 20V142C116 144.209 114.209 146 112 146H8C5.79086 146 4 144.209 4 142V20C4 17.7909 5.79086 16 8 16Z" fill="#F6F8F9"/><rect x="16" y="28" width="68" height="6" rx="1" fill="#B8C5D0"/><rect x="87" y="28" width="17" height="6" rx="1" fill="#89969F"/><rect x="6" y="46" width="6" height="3" rx="1" fill="#89969F"/><rect x="15" y="46" width="99" height="3" rx="1" fill="#B8C5D0"/><rect x="6" y="52" width="6" height="3" rx="1" fill="#89969F"/><rect x="15" y="52" width="69" height="3" rx="1" fill="#B8C5D0"/><rect x="6" y="58" width="6" height="3" rx="1" fill="#89969F"/><rect x="15" y="58" width="89" height="3" rx="1" fill="#B8C5D0"/><rect x="6" y="64" width="6" height="3" rx="1" fill="#89969F"/><rect x="15" y="64" width="79" height="3" rx="1" fill="#B8C5D0"/><rect x="6" y="70" width="6" height="3" rx="1" fill="#89969F"/><rect x="15" y="70" width="89" height="3" rx="1" fill="#B8C5D0"/><rect x="6" y="76" width="6" height="3" rx="1" fill="#89969F"/><rect x="15" y="76" width="96" height="3" rx="1" fill="#B8C5D0"/><rect x="6" y="82" width="6" height="3" rx="1" fill="#89969F"/><rect x="15" y="82" width="93" height="3" rx="1" fill="#B8C5D0"/><rect x="6" y="88" width="6" height="3" rx="1" fill="#89969F"/><rect x="15" y="88" width="49" height="3" rx="1" fill="#B8C5D0"/><rect x="6" y="94" width="6" height="3" rx="1" fill="#89969F"/><rect x="15" y="94" width="69" height="3" rx="1" fill="#B8C5D0"/><rect x="6" y="100" width="6" height="3" rx="1" fill="#89969F"/><rect x="15" y="100" width="96" height="3" rx="1" fill="#B8C5D0"/><rect x="6" y="106" width="6" height="3" rx="1" fill="#89969F"/><rect x="15" y="106" width="93" height="3" rx="1" fill="#B8C5D0"/><rect x="6" y="112" width="6" height="3" rx="1" fill="#89969F"/><rect x="15" y="112" width="49" height="3" rx="1" fill="#B8C5D0"/><rect x="6" y="118" width="6" height="3" rx="1" fill="#89969F"/><rect x="15" y="118" width="69" height="3" rx="1" fill="#B8C5D0"/><rect x="30" y="130" width="4" height="4" rx="1" fill="#B8C5D0"/><rect x="24" y="130" width="4" height="4" rx="1" fill="#B8C5D0"/><rect x="18" y="130" width="4" height="4" rx="1" fill="#B8C5D0"/><rect x="12" y="130" width="4" height="4" rx="1" fill="#B8C5D0"/><rect x="6" y="130" width="4" height="4" rx="1" fill="#89969F"/></svg>